<svg width="93" height="76" viewBox="0 0 93 76" fill="none" xmlns="http://www.w3.org/2000/svg">
<g clip-path="url(#clip0_1_57)">
<path d="M30.5338 0.976833C42.6566 0.984611 54.2907 0.984611 66.9253 0.984611C62.6082 5.87671 8.5379 5.60335 1.14978 1.79586C4.09291 -0.332746 5.63161 -0.319195 15.0819 0.551043C20.0404 1.00765 25.0555 0.849556 30.5338 0.976833Z" fill="#2B6AA6"/>
<path d="M21.9808 65.483C16.7085 64.8215 11.6718 64.6263 7.0989 63.0692C5.07886 62.3813 2.69593 58.8289 2.85827 56.7641C3.02166 54.686 5.80716 52.1337 8.05052 51.0752C10.7324 49.8097 14.0581 49.9089 17.22 50.0756C13.6598 51.4435 10.0995 52.8114 6.53921 54.1793C6.56746 54.5654 6.59572 54.9514 6.62398 55.3374C8.22721 55.8584 9.83044 56.3793 12.383 57.2086C10.1502 58.1755 8.66434 58.8189 7.21212 59.4478C13.6005 63.4437 23.6996 63.3701 28.5209 59.0093C26.1436 58.3173 23.9584 57.6811 20.9036 56.7919C21.9845 56.2243 22.3831 55.9721 22.8129 55.796C26.4322 54.3129 30.416 54.443 31.6625 58.1628C32.1356 59.5746 28.0433 62.6812 25.7864 64.7472C25.0655 65.4071 23.5545 65.2038 21.9808 65.483Z" fill="#2264A2"/>
<path d="M49.0786 74.2958C44.1459 74.2713 39.679 74.2713 34.6916 74.2713C38.3916 70.2388 86.2088 70.836 91.714 75.7637C77.6575 75.2825 63.6009 74.8014 49.0786 74.2958Z" fill="#125A9E"/>
<path d="M41.3039 18.2604C40.8243 19.1536 40.517 19.7388 40.2098 20.3241C38.3383 16.7029 35.6175 20.9954 33.4877 19.6767C35.6603 11.4302 49.58 7.61497 58.3802 12.7326C56.8926 14.6672 55.4034 16.604 53.3421 19.2847C53.165 16.742 53.0381 14.9204 52.7859 11.3001C50.1029 14.121 48.2003 16.1214 46.0431 18.3896C45.6132 17.2726 45.0956 15.9275 44.2452 13.7178C43.0193 15.5926 42.2478 16.7725 41.3039 18.2604Z" fill="#2365A3"/>
<path d="M54.2603 37.54C54.3137 35.2866 54.3137 33.4563 54.3137 30.9469C58.4765 35.2206 58.3075 39.6909 54.5263 43.6849C50.6703 47.758 43.6603 48.1417 39.6766 44.4978C35.631 40.7973 35.2966 35.1782 39.4293 30.4726C39.5658 35.999 38.1467 42.0898 45.2094 43.6033C49.7969 44.5864 51.9822 41.0922 54.2603 37.54Z" fill="#2263A2"/>
<path d="M52.7977 61.4147C53.9021 60.0292 54.7242 58.8964 55.7514 57.4808C57.2896 61.7278 56.2638 63.6931 52.2377 65.2192C47.3756 67.0623 42.5583 65.4285 40.9902 61.1516C39.7273 57.7068 40.2103 54.6536 44.1665 52.1467C42.996 62.2551 44.1054 63.3915 52.7977 61.4147Z" fill="#1F62A2"/>
<path d="M2.24458 34.4514C10.8379 35.3139 19.052 36.2018 27.2661 37.0898C18.7522 39.5566 10.1938 39.2381 1.70841 37.466C-0.472911 37.0104 -0.843448 35.3551 2.24458 34.4514Z" fill="#2566A4"/>
<path d="M14.9831 21.0045C12.8332 21.9456 11.0057 22.7197 9.17811 23.4937C8.90735 22.9448 8.6366 22.3959 8.36584 21.847C9.75978 20.6481 11.1537 19.4493 12.5408 18.2563C11.1449 15.6462 9.75789 13.0528 8.37087 10.4594C8.95703 10.0826 9.54318 9.70571 10.1293 9.32886C11.9714 11.4247 13.8134 13.5205 15.7716 15.7485C16.9825 15.0795 18.1563 14.431 19.3793 13.7552C19.0605 16.4249 18.7844 18.737 18.4621 21.435C17.9283 21.334 16.6168 21.0857 14.9831 21.0045Z" fill="#2666A3"/>
<path d="M69.8496 34.7258C77.8749 34.5278 85.5841 33.7957 92.6989 37.0004C92.6305 37.6282 92.5621 38.2559 92.4937 38.8836C83.7317 38.1257 74.9698 37.3679 65.4599 36.5453C67.1687 35.7944 68.3055 35.2949 69.8496 34.7258Z" fill="#165C9E"/>
<path d="M82.5981 64.2287C76.8939 65.6245 72.8333 63.7782 69.761 58.4879C77.3318 64.6972 83.3274 61.0736 89.529 54.4373C89.2588 60.539 86.1808 62.3567 82.5981 64.2287Z" fill="#2364A2"/>
<path d="M75.5387 18.0348C75.1167 16.4826 74.7865 15.3203 74.4563 14.1581C74.8414 13.9489 75.2265 13.7397 75.6115 13.5306C77.0745 15.5244 78.5374 17.5183 80.1326 19.6925C81.8053 17.7677 83.4775 15.8435 85.4431 13.5817C85.3246 19.774 82.9753 23.1501 77.6703 24.9316C76.9902 22.7622 76.3104 20.5935 75.5387 18.0348Z" fill="#1F62A2"/>
<path d="M29.0491 36.3454C29.0164 36.3384 29.0818 36.3524 29.0491 36.3454V36.3454Z" fill="#2566A4"/>
</g>
<defs>
<clipPath id="clip0_1_57">
<rect width="93" height="76" fill="white"/>
</clipPath>
</defs>
</svg>
