<?xml version="1.0" standalone="no"?>
<!DOCTYPE svg PUBLIC "-//W3C//DTD SVG 20010904//EN"
 "http://www.w3.org/TR/2001/REC-SVG-20010904/DTD/svg10.dtd">
<svg version="1.0" xmlns="http://www.w3.org/2000/svg"
 width="140.000000pt" height="140.000000pt" viewBox="0 0 140.000000 140.000000"
 preserveAspectRatio="xMidYMid meet">
<metadata>
Created by potrace 1.14, written by Peter Selinger 2001-2017
</metadata>
<g transform="translate(0.000000,140.000000) scale(0.100000,-0.100000)"
fill="#000000" stroke="none">
<path d="M137 1179 l-22 -18 35 -2 c19 -1 46 -2 60 -2 14 1 45 -4 70 -9 63
-14 480 -17 480 -3 0 6 3 6 8 -1 4 -6 25 -9 47 -8 22 2 78 6 125 9 80 6 99 10
89 19 -2 3 -108 6 -235 9 -128 2 -237 8 -244 12 -9 6 -11 4 -5 -5 6 -9 4 -11
-5 -5 -8 5 -57 10 -109 11 -53 2 -135 5 -184 7 -75 4 -91 2 -110 -14z"/>
<path d="M1040 1159 c0 -5 5 -7 10 -4 6 3 10 8 10 11 0 2 -4 4 -10 4 -5 0 -10
-5 -10 -11z"/>
<path d="M1075 1160 c3 -5 8 -10 11 -10 2 0 4 5 4 10 0 6 -5 10 -11 10 -5 0
-7 -4 -4 -10z"/>
<path d="M215 1060 c-6 -10 10 -44 39 -77 19 -23 19 -23 -15 -53 -28 -24 -31
-32 -20 -39 9 -6 22 -6 32 -1 9 5 19 7 22 3 4 -3 9 2 13 11 8 20 33 20 58 1
33 -25 40 -17 14 18 l-25 32 20 27 c26 35 17 45 -18 22 -27 -18 -27 -17 -56
16 -16 18 -29 37 -29 41 0 12 -27 11 -35 -1z"/>
<path d="M702 1053 c-45 -12 -111 -49 -124 -67 -4 -6 -8 -7 -8 -2 0 14 -29
-27 -30 -41 0 -18 35 -16 50 2 10 13 15 12 31 -8 10 -12 19 -19 20 -14 8 39
31 75 50 80 11 3 17 2 14 -2 -2 -4 -1 -21 4 -37 l8 -29 16 32 c36 69 76 85 74
28 -1 -36 12 -60 20 -37 3 7 16 26 29 42 24 28 24 29 5 39 -11 6 -27 11 -35
11 -9 0 -16 4 -16 8 0 12 -60 9 -108 -5z"/>
<path d="M1083 1024 c0 -8 5 -14 10 -14 5 0 7 -7 3 -15 -3 -8 -2 -15 3 -15 5
0 12 -20 15 -44 4 -24 13 -52 20 -62 13 -17 15 -17 41 0 24 16 62 68 66 91 1
6 5 20 10 33 14 37 -7 25 -46 -24 -19 -26 -35 -41 -35 -35 0 7 -4 10 -8 7 -5
-3 -9 1 -9 8 0 15 -42 72 -59 79 -6 3 -11 -1 -11 -9z"/>
<path d="M680 828 c-64 -18 -101 -71 -93 -133 6 -51 22 -79 58 -104 29 -19 44
-23 88 -19 57 5 86 23 119 76 16 26 19 42 13 78 -6 39 -9 45 -28 42 -13 -2
-21 -9 -19 -18 13 -54 11 -61 -28 -100 -48 -48 -84 -52 -128 -15 -40 33 -47
94 -17 139 11 17 31 32 43 34 12 2 22 8 22 13 0 6 5 7 12 3 7 -4 8 -3 4 4 -4
7 -8 12 -9 11 -1 0 -18 -5 -37 -11z"/>
<path d="M112 729 c-37 -14 -7 -35 61 -43 62 -8 230 -9 262 -2 11 2 38 5 60 6
31 0 36 3 23 10 -16 10 -50 13 -258 25 -47 2 -94 6 -105 9 -11 2 -30 0 -43 -5z"/>
<path d="M1020 732 c-19 -1 -42 -5 -50 -8 -22 -8 20 -23 54 -20 14 2 26 0 26
-3 0 -3 15 -6 33 -7 132 -4 178 -8 182 -14 4 -7 64 -5 72 4 3 3 3 12 0 20 -4
9 -27 17 -69 21 -77 8 -200 12 -248 7z"/>
<path d="M935 721 c-3 -5 -1 -12 5 -16 5 -3 10 1 10 9 0 18 -6 21 -15 7z"/>
<path d="M188 508 c-43 -26 -58 -46 -58 -78 0 -40 61 -92 126 -105 114 -24
241 9 270 70 9 19 7 25 -13 41 -28 21 -66 28 -100 19 -43 -10 -24 -29 40 -39
62 -9 -1 -44 -88 -49 -79 -4 -143 7 -165 29 -12 12 -12 14 5 14 11 0 27 5 35
10 13 9 13 11 0 20 -8 5 -26 10 -39 10 -23 0 -23 1 -7 18 21 24 88 46 143 47
24 1 46 5 50 9 4 4 -32 6 -79 5 -66 -1 -95 -6 -120 -21z"/>
<path d="M700 504 c-44 -19 -59 -41 -60 -88 0 -31 6 -45 35 -72 29 -27 42 -32
73 -30 58 5 87 21 105 57 8 18 13 37 11 41 -10 16 -31 8 -44 -17 -7 -14 -19
-26 -27 -26 -26 -3 -31 -4 -38 -10 -11 -11 -66 22 -75 45 -17 45 36 96 93 87
26 -4 20 6 -11 17 -21 7 -37 6 -62 -4z"/>
<path d="M1255 430 c-3 -11 -11 -20 -17 -20 -6 0 -19 -7 -29 -16 -20 -18 -74
-28 -97 -18 -10 4 -19 8 -22 8 -12 3 -55 37 -53 44 1 4 -1 9 -3 11 -9 9 -3
-21 8 -42 47 -88 177 -90 236 -4 12 18 22 39 22 45 0 20 -38 13 -45 -8z"/>
<path d="M736 425 c-3 -8 -1 -15 4 -15 6 0 10 7 10 15 0 8 -2 15 -4 15 -2 0
-6 -7 -10 -15z"/>
<path d="M736 242 c-2 -1 -50 -4 -107 -7 -126 -5 -253 -15 -258 -21 -2 -2 31
-4 75 -5 273 -3 330 -5 341 -12 6 -4 14 -3 18 3 4 6 11 7 17 4 6 -4 70 -8 142
-10 72 -1 178 -5 236 -9 66 -4 111 -2 120 4 25 17 -1 31 -70 35 -36 2 -76 7
-90 10 -14 3 -45 6 -70 6 -86 -1 -165 0 -258 2 -52 2 -95 2 -96 0z"/>
</g>
</svg>
